<?xml version="1.0" encoding="utf-8"?>
<!-- Generator: Adobe Illustrator 25.3.1, SVG Export Plug-In . SVG Version: 6.00 Build 0)  -->
<svg version="1.1" xmlns="http://www.w3.org/2000/svg" xmlns:xlink="http://www.w3.org/1999/xlink" x="0px" y="0px"
	 viewBox="0 0 67 67" enable-background="new 0 0 67 67" xml:space="preserve">
<g id="レイヤー_1">
</g>
<g id="レイヤー_2">
	<path d="M33.5,0C14.998,0,0,14.998,0,33.5S14.998,67,33.5,67S67,52.002,67,33.5S52.002,0,33.5,0z M34,63C17.431,63,4,49.569,4,33
		S17.431,3,34,3s30,13.431,30,30S50.569,63,34,63z"/>
	<circle fill="#FF0267" cx="33.5" cy="33.5" r="30.5"/>
	<path display="none" fill="#FFFFFF" d="M33.5,5C17.76,5,5,17.76,5,33.5S17.76,62,33.5,62S62,49.24,62,33.5S49.24,5,33.5,5z
		 M33.925,58.597c-14.096,0-25.522-11.427-25.522-25.522S19.83,7.552,33.925,7.552s25.522,11.427,25.522,25.522
		S48.021,58.597,33.925,58.597z"/>
</g>
</svg>
